<svg xmlns="http://www.w3.org/2000/svg" width="800" height="600"><style>
              .assembly-component { 
                fill: none; 
                stroke: #000; 
              }
              .assembly-board { 
                fill: #f2f2f2; 
                stroke: rgb(0,0,0); 
                stroke-opacity: 0.8;
              }
              .assembly-component-label { 
                fill: #000; 
                font-family: Arial, serif;
                font-weight: bold;
                dominant-baseline: middle;
                text-anchor: middle;
              }
              .assembly-boundary { 
                fill: none; 
                stroke: #fff;
                stroke-width: 0.2; 
              }
            </style><rect fill="#fff" x="0" y="0" width="800" height="600"/><rect class="assembly-boundary" x="8.163265306122469" y="30.6122448979591" width="783.6734693877552" height="538.7755102040817"/><path class="pcb-board" d="M 8.163265306122469 569.3877551020407 L 791.8367346938776 569.3877551020407 L 791.8367346938776 30.6122448979591 L 8.163265306122469 30.6122448979591 Z" fill="none" stroke="rgb(0,0,0)" stroke-opacity="0.8" stroke-width="1.6326530612244898"/><g><circle class="assembly-hole-outer" fill="rgb(210, 210, 210)" cx="40.81632653061229" cy="55.10204081632648" r="16.3265306122449"/><circle class="assembly-hole-inner" fill="rgb(190, 190, 190)" cx="40.81632653061229" cy="55.10204081632648" r="12.244897959183675"/></g><g><circle class="assembly-hole-outer" fill="rgb(210, 210, 210)" cx="759.1836734693878" cy="55.10204081632648" r="16.3265306122449"/><circle class="assembly-hole-inner" fill="rgb(190, 190, 190)" cx="759.1836734693878" cy="55.10204081632648" r="12.244897959183675"/></g><g><circle class="assembly-hole-outer" fill="rgb(210, 210, 210)" cx="40.81632653061229" cy="544.8979591836734" r="16.3265306122449"/><circle class="assembly-hole-inner" fill="rgb(190, 190, 190)" cx="40.81632653061229" cy="544.8979591836734" r="12.244897959183675"/></g><g><circle class="assembly-hole-outer" fill="rgb(210, 210, 210)" cx="759.1836734693878" cy="544.8979591836734" r="16.3265306122449"/><circle class="assembly-hole-inner" fill="rgb(190, 190, 190)" cx="759.1836734693878" cy="544.8979591836734" r="12.244897959183675"/></g><g><circle class="assembly-hole-outer" fill="rgb(210, 210, 210)" cx="459.59183673469397" cy="113.38775510204076" r="5.714285714285714"/><circle class="assembly-hole-inner" fill="rgb(190, 190, 190)" cx="459.59183673469397" cy="113.38775510204076" r="4.081632653061225"/></g><g><circle class="assembly-hole-outer" fill="rgb(210, 210, 210)" cx="459.59183673469397" cy="134.12244897959178" r="5.714285714285714"/><circle class="assembly-hole-inner" fill="rgb(190, 190, 190)" cx="459.59183673469397" cy="134.12244897959178" r="4.081632653061225"/></g><g><circle class="assembly-hole-outer" fill="rgb(210, 210, 210)" cx="459.59183673469397" cy="154.85714285714278" r="5.714285714285714"/><circle class="assembly-hole-inner" fill="rgb(190, 190, 190)" cx="459.59183673469397" cy="154.85714285714278" r="4.081632653061225"/></g><g><circle class="assembly-hole-outer" fill="rgb(210, 210, 210)" cx="459.59183673469397" cy="175.59183673469383" r="5.714285714285714"/><circle class="assembly-hole-inner" fill="rgb(190, 190, 190)" cx="459.59183673469397" cy="175.59183673469383" r="4.081632653061225"/></g><g><circle class="assembly-hole-outer" fill="rgb(210, 210, 210)" cx="459.59183673469397" cy="196.32653061224482" r="5.714285714285714"/><circle class="assembly-hole-inner" fill="rgb(190, 190, 190)" cx="459.59183673469397" cy="196.32653061224482" r="4.081632653061225"/></g><g><circle class="assembly-hole-outer" fill="rgb(210, 210, 210)" cx="459.59183673469397" cy="217.06122448979585" r="5.714285714285714"/><circle class="assembly-hole-inner" fill="rgb(190, 190, 190)" cx="459.59183673469397" cy="217.06122448979585" r="4.081632653061225"/></g><g><circle class="assembly-hole-outer" fill="rgb(210, 210, 210)" cx="459.59183673469397" cy="237.79591836734687" r="5.714285714285714"/><circle class="assembly-hole-inner" fill="rgb(190, 190, 190)" cx="459.59183673469397" cy="237.79591836734687" r="4.081632653061225"/></g><g><circle class="assembly-hole-outer" fill="rgb(210, 210, 210)" cx="459.59183673469397" cy="258.5306122448979" r="5.714285714285714"/><circle class="assembly-hole-inner" fill="rgb(190, 190, 190)" cx="459.59183673469397" cy="258.5306122448979" r="4.081632653061225"/></g><g><circle class="assembly-hole-outer" fill="rgb(210, 210, 210)" cx="459.59183673469397" cy="279.2653061224489" r="5.714285714285714"/><circle class="assembly-hole-inner" fill="rgb(190, 190, 190)" cx="459.59183673469397" cy="279.2653061224489" r="4.081632653061225"/></g><g><circle class="assembly-hole-outer" fill="rgb(210, 210, 210)" cx="459.59183673469397" cy="299.99999999999994" r="5.714285714285714"/><circle class="assembly-hole-inner" fill="rgb(190, 190, 190)" cx="459.59183673469397" cy="299.99999999999994" r="4.081632653061225"/></g><g><circle class="assembly-hole-outer" fill="rgb(210, 210, 210)" cx="459.59183673469397" cy="320.73469387755097" r="5.714285714285714"/><circle class="assembly-hole-inner" fill="rgb(190, 190, 190)" cx="459.59183673469397" cy="320.73469387755097" r="4.081632653061225"/></g><g><circle class="assembly-hole-outer" fill="rgb(210, 210, 210)" cx="459.59183673469397" cy="341.469387755102" r="5.714285714285714"/><circle class="assembly-hole-inner" fill="rgb(190, 190, 190)" cx="459.59183673469397" cy="341.469387755102" r="4.081632653061225"/></g><g><circle class="assembly-hole-outer" fill="rgb(210, 210, 210)" cx="459.59183673469397" cy="362.204081632653" r="5.714285714285714"/><circle class="assembly-hole-inner" fill="rgb(190, 190, 190)" cx="459.59183673469397" cy="362.204081632653" r="4.081632653061225"/></g><g><circle class="assembly-hole-outer" fill="rgb(210, 210, 210)" cx="459.59183673469397" cy="382.93877551020404" r="5.714285714285714"/><circle class="assembly-hole-inner" fill="rgb(190, 190, 190)" cx="459.59183673469397" cy="382.93877551020404" r="4.081632653061225"/></g><g><circle class="assembly-hole-outer" fill="rgb(210, 210, 210)" cx="459.59183673469397" cy="403.67346938775506" r="5.714285714285714"/><circle class="assembly-hole-inner" fill="rgb(190, 190, 190)" cx="459.59183673469397" cy="403.67346938775506" r="4.081632653061225"/></g><g><circle class="assembly-hole-outer" fill="rgb(210, 210, 210)" cx="459.59183673469397" cy="424.4081632653061" r="5.714285714285714"/><circle class="assembly-hole-inner" fill="rgb(190, 190, 190)" cx="459.59183673469397" cy="424.4081632653061" r="4.081632653061225"/></g><g><circle class="assembly-hole-outer" fill="rgb(210, 210, 210)" cx="459.59183673469397" cy="445.1428571428571" r="5.714285714285714"/><circle class="assembly-hole-inner" fill="rgb(190, 190, 190)" cx="459.59183673469397" cy="445.1428571428571" r="4.081632653061225"/></g><g><circle class="assembly-hole-outer" fill="rgb(210, 210, 210)" cx="459.59183673469397" cy="465.8775510204081" r="5.714285714285714"/><circle class="assembly-hole-inner" fill="rgb(190, 190, 190)" cx="459.59183673469397" cy="465.8775510204081" r="4.081632653061225"/></g><g><circle class="assembly-hole-outer" fill="rgb(210, 210, 210)" cx="459.59183673469397" cy="486.61224489795916" r="5.714285714285714"/><circle class="assembly-hole-inner" fill="rgb(190, 190, 190)" cx="459.59183673469397" cy="486.61224489795916" r="4.081632653061225"/></g><g><circle class="assembly-hole-outer" fill="rgb(210, 210, 210)" cx="666.9387755102041" cy="113.38775510204076" r="5.714285714285714"/><circle class="assembly-hole-inner" fill="rgb(190, 190, 190)" cx="666.9387755102041" cy="113.38775510204076" r="4.081632653061225"/></g><g><circle class="assembly-hole-outer" fill="rgb(210, 210, 210)" cx="666.9387755102041" cy="134.12244897959178" r="5.714285714285714"/><circle class="assembly-hole-inner" fill="rgb(190, 190, 190)" cx="666.9387755102041" cy="134.12244897959178" r="4.081632653061225"/></g><g><circle class="assembly-hole-outer" fill="rgb(210, 210, 210)" cx="666.9387755102041" cy="154.85714285714278" r="5.714285714285714"/><circle class="assembly-hole-inner" fill="rgb(190, 190, 190)" cx="666.9387755102041" cy="154.85714285714278" r="4.081632653061225"/></g><g><circle class="assembly-hole-outer" fill="rgb(210, 210, 210)" cx="666.9387755102041" cy="175.59183673469383" r="5.714285714285714"/><circle class="assembly-hole-inner" fill="rgb(190, 190, 190)" cx="666.9387755102041" cy="175.59183673469383" r="4.081632653061225"/></g><g><circle class="assembly-hole-outer" fill="rgb(210, 210, 210)" cx="666.9387755102041" cy="196.32653061224482" r="5.714285714285714"/><circle class="assembly-hole-inner" fill="rgb(190, 190, 190)" cx="666.9387755102041" cy="196.32653061224482" r="4.081632653061225"/></g><g><circle class="assembly-hole-outer" fill="rgb(210, 210, 210)" cx="666.9387755102041" cy="217.06122448979585" r="5.714285714285714"/><circle class="assembly-hole-inner" fill="rgb(190, 190, 190)" cx="666.9387755102041" cy="217.06122448979585" r="4.081632653061225"/></g><g><circle class="assembly-hole-outer" fill="rgb(210, 210, 210)" cx="666.9387755102041" cy="237.79591836734687" r="5.714285714285714"/><circle class="assembly-hole-inner" fill="rgb(190, 190, 190)" cx="666.9387755102041" cy="237.79591836734687" r="4.081632653061225"/></g><g><circle class="assembly-hole-outer" fill="rgb(210, 210, 210)" cx="666.9387755102041" cy="258.5306122448979" r="5.714285714285714"/><circle class="assembly-hole-inner" fill="rgb(190, 190, 190)" cx="666.9387755102041" cy="258.5306122448979" r="4.081632653061225"/></g><g><circle class="assembly-hole-outer" fill="rgb(210, 210, 210)" cx="666.9387755102041" cy="279.2653061224489" r="5.714285714285714"/><circle class="assembly-hole-inner" fill="rgb(190, 190, 190)" cx="666.9387755102041" cy="279.2653061224489" r="4.081632653061225"/></g><g><circle class="assembly-hole-outer" fill="rgb(210, 210, 210)" cx="666.9387755102041" cy="299.99999999999994" r="5.714285714285714"/><circle class="assembly-hole-inner" fill="rgb(190, 190, 190)" cx="666.9387755102041" cy="299.99999999999994" r="4.081632653061225"/></g><g><circle class="assembly-hole-outer" fill="rgb(210, 210, 210)" cx="666.9387755102041" cy="320.73469387755097" r="5.714285714285714"/><circle class="assembly-hole-inner" fill="rgb(190, 190, 190)" cx="666.9387755102041" cy="320.73469387755097" r="4.081632653061225"/></g><g><circle class="assembly-hole-outer" fill="rgb(210, 210, 210)" cx="666.9387755102041" cy="341.469387755102" r="5.714285714285714"/><circle class="assembly-hole-inner" fill="rgb(190, 190, 190)" cx="666.9387755102041" cy="341.469387755102" r="4.081632653061225"/></g><g><circle class="assembly-hole-outer" fill="rgb(210, 210, 210)" cx="666.9387755102041" cy="362.204081632653" r="5.714285714285714"/><circle class="assembly-hole-inner" fill="rgb(190, 190, 190)" cx="666.9387755102041" cy="362.204081632653" r="4.081632653061225"/></g><g><circle class="assembly-hole-outer" fill="rgb(210, 210, 210)" cx="666.9387755102041" cy="382.93877551020404" r="5.714285714285714"/><circle class="assembly-hole-inner" fill="rgb(190, 190, 190)" cx="666.9387755102041" cy="382.93877551020404" r="4.081632653061225"/></g><g><circle class="assembly-hole-outer" fill="rgb(210, 210, 210)" cx="666.9387755102041" cy="403.67346938775506" r="5.714285714285714"/><circle class="assembly-hole-inner" fill="rgb(190, 190, 190)" cx="666.9387755102041" cy="403.67346938775506" r="4.081632653061225"/></g><g><circle class="assembly-hole-outer" fill="rgb(210, 210, 210)" cx="666.9387755102041" cy="424.4081632653061" r="5.714285714285714"/><circle class="assembly-hole-inner" fill="rgb(190, 190, 190)" cx="666.9387755102041" cy="424.4081632653061" r="4.081632653061225"/></g><g><circle class="assembly-hole-outer" fill="rgb(210, 210, 210)" cx="666.9387755102041" cy="445.1428571428571" r="5.714285714285714"/><circle class="assembly-hole-inner" fill="rgb(190, 190, 190)" cx="666.9387755102041" cy="445.1428571428571" r="4.081632653061225"/></g><g><circle class="assembly-hole-outer" fill="rgb(210, 210, 210)" cx="666.9387755102041" cy="465.8775510204081" r="5.714285714285714"/><circle class="assembly-hole-inner" fill="rgb(190, 190, 190)" cx="666.9387755102041" cy="465.8775510204081" r="4.081632653061225"/></g><g><circle class="assembly-hole-outer" fill="rgb(210, 210, 210)" cx="666.9387755102041" cy="486.61224489795916" r="5.714285714285714"/><circle class="assembly-hole-inner" fill="rgb(190, 190, 190)" cx="666.9387755102041" cy="486.61224489795916" r="4.081632653061225"/></g><g><circle class="assembly-hole-outer" fill="rgb(210, 210, 210)" cx="38.787755102040876" cy="230.02040816326524" r="11.428571428571429"/><circle class="assembly-hole-inner" fill="rgb(190, 190, 190)" cx="38.787755102040876" cy="230.02040816326524" r="6.122448979591837"/></g><g><circle class="assembly-hole-outer" fill="rgb(210, 210, 210)" cx="38.787755102040876" cy="369.97959183673464" r="11.428571428571429"/><circle class="assembly-hole-inner" fill="rgb(190, 190, 190)" cx="38.787755102040876" cy="369.97959183673464" r="6.122448979591837"/></g><g><circle class="assembly-hole-outer" fill="rgb(210, 210, 210)" cx="361.21224489795924" cy="230.02040816326524" r="11.428571428571429"/><circle class="assembly-hole-inner" fill="rgb(190, 190, 190)" cx="361.21224489795924" cy="230.02040816326524" r="6.122448979591837"/></g><g><circle class="assembly-hole-outer" fill="rgb(210, 210, 210)" cx="361.21224489795924" cy="369.97959183673464" r="11.428571428571429"/><circle class="assembly-hole-inner" fill="rgb(190, 190, 190)" cx="361.21224489795924" cy="369.97959183673464" r="6.122448979591837"/></g><g><circle class="assembly-hole-outer" fill="rgb(210, 210, 210)" cx="77.66530612244901" cy="234.68571428571423" r="16.3265306122449"/><circle class="assembly-hole-inner" fill="rgb(190, 190, 190)" cx="77.66530612244901" cy="234.68571428571423" r="12.244897959183675"/></g><g><circle class="assembly-hole-outer" fill="rgb(210, 210, 210)" cx="322.3346938775511" cy="365.3142857142857" r="16.3265306122449"/><circle class="assembly-hole-inner" fill="rgb(190, 190, 190)" cx="322.3346938775511" cy="365.3142857142857" r="12.244897959183675"/></g><g><circle class="assembly-hole-outer" fill="rgb(210, 210, 210)" cx="40.81632653061229" cy="144.8979591836734" r="16.3265306122449"/><circle class="assembly-hole-inner" fill="rgb(190, 190, 190)" cx="40.81632653061229" cy="144.8979591836734" r="11.428571428571429"/></g><g><circle class="assembly-hole-outer" fill="rgb(210, 210, 210)" cx="89.79591836734699" cy="144.8979591836734" r="16.3265306122449"/><circle class="assembly-hole-inner" fill="rgb(190, 190, 190)" cx="89.79591836734699" cy="144.8979591836734" r="11.428571428571429"/></g><g><circle class="assembly-hole-outer" fill="rgb(210, 210, 210)" cx="65.30612244897964" cy="184.08163265306118" r="16.3265306122449"/><circle class="assembly-hole-inner" fill="rgb(190, 190, 190)" cx="65.30612244897964" cy="184.08163265306118" r="11.428571428571429"/></g><g><circle class="assembly-hole-outer" fill="rgb(210, 210, 210)" cx="107.02040816326536" cy="423.99999999999994" r="5.714285714285714"/><circle class="assembly-hole-inner" fill="rgb(190, 190, 190)" cx="107.02040816326536" cy="423.99999999999994" r="4.081632653061225"/></g><g><circle class="assembly-hole-outer" fill="rgb(210, 210, 210)" cx="127.75510204081638" cy="423.99999999999994" r="5.714285714285714"/><circle class="assembly-hole-inner" fill="rgb(190, 190, 190)" cx="127.75510204081638" cy="423.99999999999994" r="4.081632653061225"/></g><g><circle class="assembly-hole-outer" fill="rgb(210, 210, 210)" cx="148.48979591836738" cy="423.99999999999994" r="5.714285714285714"/><circle class="assembly-hole-inner" fill="rgb(190, 190, 190)" cx="148.48979591836738" cy="423.99999999999994" r="4.081632653061225"/></g><g><circle class="assembly-hole-outer" fill="rgb(210, 210, 210)" cx="169.22448979591843" cy="423.99999999999994" r="5.714285714285714"/><circle class="assembly-hole-inner" fill="rgb(190, 190, 190)" cx="169.22448979591843" cy="423.99999999999994" r="4.081632653061225"/></g><g><circle class="assembly-hole-outer" fill="rgb(210, 210, 210)" cx="189.95918367346943" cy="423.99999999999994" r="5.714285714285714"/><circle class="assembly-hole-inner" fill="rgb(190, 190, 190)" cx="189.95918367346943" cy="423.99999999999994" r="4.081632653061225"/></g><g><circle class="assembly-hole-outer" fill="rgb(210, 210, 210)" cx="210.69387755102045" cy="423.99999999999994" r="5.714285714285714"/><circle class="assembly-hole-inner" fill="rgb(190, 190, 190)" cx="210.69387755102045" cy="423.99999999999994" r="4.081632653061225"/></g><g><circle class="assembly-hole-outer" fill="rgb(210, 210, 210)" cx="231.4285714285715" cy="423.99999999999994" r="5.714285714285714"/><circle class="assembly-hole-inner" fill="rgb(190, 190, 190)" cx="231.4285714285715" cy="423.99999999999994" r="4.081632653061225"/></g><g><circle class="assembly-hole-outer" fill="rgb(210, 210, 210)" cx="252.1632653061225" cy="423.99999999999994" r="5.714285714285714"/><circle class="assembly-hole-inner" fill="rgb(190, 190, 190)" cx="252.1632653061225" cy="423.99999999999994" r="4.081632653061225"/></g><g><circle class="assembly-hole-outer" fill="rgb(210, 210, 210)" cx="107.02040816326536" cy="486.204081632653" r="5.714285714285714"/><circle class="assembly-hole-inner" fill="rgb(190, 190, 190)" cx="107.02040816326536" cy="486.204081632653" r="4.081632653061225"/></g><g><circle class="assembly-hole-outer" fill="rgb(210, 210, 210)" cx="127.75510204081638" cy="486.204081632653" r="5.714285714285714"/><circle class="assembly-hole-inner" fill="rgb(190, 190, 190)" cx="127.75510204081638" cy="486.204081632653" r="4.081632653061225"/></g><g><circle class="assembly-hole-outer" fill="rgb(210, 210, 210)" cx="148.48979591836738" cy="486.204081632653" r="5.714285714285714"/><circle class="assembly-hole-inner" fill="rgb(190, 190, 190)" cx="148.48979591836738" cy="486.204081632653" r="4.081632653061225"/></g><g><circle class="assembly-hole-outer" fill="rgb(210, 210, 210)" cx="169.22448979591843" cy="486.204081632653" r="5.714285714285714"/><circle class="assembly-hole-inner" fill="rgb(190, 190, 190)" cx="169.22448979591843" cy="486.204081632653" r="4.081632653061225"/></g><g><circle class="assembly-hole-outer" fill="rgb(210, 210, 210)" cx="189.95918367346943" cy="486.204081632653" r="5.714285714285714"/><circle class="assembly-hole-inner" fill="rgb(190, 190, 190)" cx="189.95918367346943" cy="486.204081632653" r="4.081632653061225"/></g><g><circle class="assembly-hole-outer" fill="rgb(210, 210, 210)" cx="210.69387755102045" cy="486.204081632653" r="5.714285714285714"/><circle class="assembly-hole-inner" fill="rgb(190, 190, 190)" cx="210.69387755102045" cy="486.204081632653" r="4.081632653061225"/></g><g><circle class="assembly-hole-outer" fill="rgb(210, 210, 210)" cx="231.4285714285715" cy="486.204081632653" r="5.714285714285714"/><circle class="assembly-hole-inner" fill="rgb(190, 190, 190)" cx="231.4285714285715" cy="486.204081632653" r="4.081632653061225"/></g><g><circle class="assembly-hole-outer" fill="rgb(210, 210, 210)" cx="252.1632653061225" cy="486.204081632653" r="5.714285714285714"/><circle class="assembly-hole-inner" fill="rgb(190, 190, 190)" cx="252.1632653061225" cy="486.204081632653" r="4.081632653061225"/></g><g><circle class="assembly-hole-outer" fill="rgb(210, 210, 210)" cx="38.612244897959215" cy="455.1020408163265" r="5.714285714285714"/><circle class="assembly-hole-inner" fill="rgb(190, 190, 190)" cx="38.612244897959215" cy="455.1020408163265" r="3.2653061224489797"/></g><g><circle class="assembly-hole-outer" fill="rgb(210, 210, 210)" cx="59.346938775510296" cy="455.1020408163265" r="5.714285714285714"/><circle class="assembly-hole-inner" fill="rgb(190, 190, 190)" cx="59.346938775510296" cy="455.1020408163265" r="3.2653061224489797"/></g><g><circle class="assembly-hole-outer" fill="rgb(210, 210, 210)" cx="148.4897959183674" cy="528.5714285714286" r="5.714285714285714"/><circle class="assembly-hole-inner" fill="rgb(190, 190, 190)" cx="148.4897959183674" cy="528.5714285714286" r="4.081632653061225"/></g><g><circle class="assembly-hole-outer" fill="rgb(210, 210, 210)" cx="169.22448979591843" cy="528.5714285714286" r="5.714285714285714"/><circle class="assembly-hole-inner" fill="rgb(190, 190, 190)" cx="169.22448979591843" cy="528.5714285714286" r="4.081632653061225"/></g><g><circle class="assembly-hole-outer" fill="rgb(210, 210, 210)" cx="189.95918367346943" cy="528.5714285714286" r="5.714285714285714"/><circle class="assembly-hole-inner" fill="rgb(190, 190, 190)" cx="189.95918367346943" cy="528.5714285714286" r="4.081632653061225"/></g><g><circle class="assembly-hole-outer" fill="rgb(210, 210, 210)" cx="210.69387755102045" cy="528.5714285714286" r="5.714285714285714"/><circle class="assembly-hole-inner" fill="rgb(190, 190, 190)" cx="210.69387755102045" cy="528.5714285714286" r="4.081632653061225"/></g><g><circle class="assembly-hole-outer" fill="rgb(210, 210, 210)" cx="416.32653061224494" cy="214.6122448979591" r="5.714285714285714"/><circle class="assembly-hole-inner" fill="rgb(190, 190, 190)" cx="416.32653061224494" cy="214.6122448979591" r="4.081632653061225"/></g><g><circle class="assembly-hole-outer" fill="rgb(210, 210, 210)" cx="416.32653061224494" cy="193.8775510204081" r="5.714285714285714"/><circle class="assembly-hole-inner" fill="rgb(190, 190, 190)" cx="416.32653061224494" cy="193.8775510204081" r="4.081632653061225"/></g><g><circle class="assembly-hole-outer" fill="rgb(210, 210, 210)" cx="416.32653061224494" cy="173.1428571428571" r="5.714285714285714"/><circle class="assembly-hole-inner" fill="rgb(190, 190, 190)" cx="416.32653061224494" cy="173.1428571428571" r="4.081632653061225"/></g><g><circle class="assembly-hole-outer" fill="rgb(210, 210, 210)" cx="416.32653061224494" cy="279.91836734693874" r="5.714285714285714"/><circle class="assembly-hole-inner" fill="rgb(190, 190, 190)" cx="416.32653061224494" cy="279.91836734693874" r="4.081632653061225"/></g><g><circle class="assembly-hole-outer" fill="rgb(210, 210, 210)" cx="416.32653061224494" cy="259.1836734693877" r="5.714285714285714"/><circle class="assembly-hole-inner" fill="rgb(190, 190, 190)" cx="416.32653061224494" cy="259.1836734693877" r="4.081632653061225"/></g><g><circle class="assembly-hole-outer" fill="rgb(210, 210, 210)" cx="416.32653061224494" cy="238.4489795918367" r="5.714285714285714"/><circle class="assembly-hole-inner" fill="rgb(190, 190, 190)" cx="416.32653061224494" cy="238.4489795918367" r="4.081632653061225"/></g><g><circle class="assembly-hole-outer" fill="rgb(210, 210, 210)" cx="416.32653061224494" cy="371.91836734693874" r="5.714285714285714"/><circle class="assembly-hole-inner" fill="rgb(190, 190, 190)" cx="416.32653061224494" cy="371.91836734693874" r="4.081632653061225"/></g><g><circle class="assembly-hole-outer" fill="rgb(210, 210, 210)" cx="416.32653061224494" cy="351.1836734693877" r="5.714285714285714"/><circle class="assembly-hole-inner" fill="rgb(190, 190, 190)" cx="416.32653061224494" cy="351.1836734693877" r="4.081632653061225"/></g><g><circle class="assembly-hole-outer" fill="rgb(210, 210, 210)" cx="416.32653061224494" cy="330.4489795918367" r="5.714285714285714"/><circle class="assembly-hole-inner" fill="rgb(190, 190, 190)" cx="416.32653061224494" cy="330.4489795918367" r="4.081632653061225"/></g><g><circle class="assembly-hole-outer" fill="rgb(210, 210, 210)" cx="416.32653061224494" cy="309.71428571428567" r="5.714285714285714"/><circle class="assembly-hole-inner" fill="rgb(190, 190, 190)" cx="416.32653061224494" cy="309.71428571428567" r="4.081632653061225"/></g><g><circle class="assembly-hole-outer" fill="rgb(210, 210, 210)" cx="751.0204081632653" cy="342.8571428571428" r="10.612244897959185"/><circle class="assembly-hole-inner" fill="rgb(190, 190, 190)" cx="751.0204081632653" cy="342.8571428571428" r="4.8979591836734695"/></g><g><circle class="assembly-hole-outer" fill="rgb(210, 210, 210)" cx="751.0204081632653" cy="371.4285714285714" r="10.612244897959185"/><circle class="assembly-hole-inner" fill="rgb(190, 190, 190)" cx="751.0204081632653" cy="371.4285714285714" r="4.8979591836734695"/></g><g><circle class="assembly-hole-outer" fill="rgb(210, 210, 210)" cx="751.0204081632653" cy="399.99999999999994" r="10.612244897959185"/><circle class="assembly-hole-inner" fill="rgb(190, 190, 190)" cx="751.0204081632653" cy="399.99999999999994" r="4.8979591836734695"/></g><g><circle class="assembly-hole-outer" fill="rgb(210, 210, 210)" cx="751.0204081632653" cy="428.57142857142856" r="10.612244897959185"/><circle class="assembly-hole-inner" fill="rgb(190, 190, 190)" cx="751.0204081632653" cy="428.57142857142856" r="4.8979591836734695"/></g><g><circle class="assembly-hole-outer" fill="rgb(210, 210, 210)" cx="751.0204081632653" cy="457.1428571428571" r="10.612244897959185"/><circle class="assembly-hole-inner" fill="rgb(190, 190, 190)" cx="751.0204081632653" cy="457.1428571428571" r="4.8979591836734695"/></g><g><circle class="assembly-hole-outer" fill="rgb(210, 210, 210)" cx="751.0204081632653" cy="485.71428571428567" r="10.612244897959185"/><circle class="assembly-hole-inner" fill="rgb(190, 190, 190)" cx="751.0204081632653" cy="485.71428571428567" r="4.8979591836734695"/></g><g><circle class="assembly-hole-outer" fill="rgb(210, 210, 210)" cx="751.0204081632653" cy="93.8775510204081" r="10.612244897959185"/><circle class="assembly-hole-inner" fill="rgb(190, 190, 190)" cx="751.0204081632653" cy="93.8775510204081" r="4.8979591836734695"/></g><g><circle class="assembly-hole-outer" fill="rgb(210, 210, 210)" cx="751.0204081632653" cy="122.44897959183666" r="10.612244897959185"/><circle class="assembly-hole-inner" fill="rgb(190, 190, 190)" cx="751.0204081632653" cy="122.44897959183666" r="4.8979591836734695"/></g><g><circle class="assembly-hole-outer" fill="rgb(210, 210, 210)" cx="751.0204081632653" cy="151.02040816326524" r="10.612244897959185"/><circle class="assembly-hole-inner" fill="rgb(190, 190, 190)" cx="751.0204081632653" cy="151.02040816326524" r="4.8979591836734695"/></g><g><circle class="assembly-hole-outer" fill="rgb(210, 210, 210)" cx="751.0204081632653" cy="179.5918367346938" r="10.612244897959185"/><circle class="assembly-hole-inner" fill="rgb(190, 190, 190)" cx="751.0204081632653" cy="179.5918367346938" r="4.8979591836734695"/></g><g><circle class="assembly-hole-outer" fill="rgb(210, 210, 210)" cx="751.0204081632653" cy="208.16326530612238" r="10.612244897959185"/><circle class="assembly-hole-inner" fill="rgb(190, 190, 190)" cx="751.0204081632653" cy="208.16326530612238" r="4.8979591836734695"/></g><g><circle class="assembly-hole-outer" fill="rgb(210, 210, 210)" cx="751.0204081632653" cy="236.73469387755097" r="10.612244897959185"/><circle class="assembly-hole-inner" fill="rgb(190, 190, 190)" cx="751.0204081632653" cy="236.73469387755097" r="4.8979591836734695"/></g><g><circle class="assembly-hole-outer" fill="rgb(210, 210, 210)" cx="751.0204081632653" cy="265.3061224489795" r="10.612244897959185"/><circle class="assembly-hole-inner" fill="rgb(190, 190, 190)" cx="751.0204081632653" cy="265.3061224489795" r="4.8979591836734695"/></g><g><circle class="assembly-hole-outer" fill="rgb(210, 210, 210)" cx="751.0204081632653" cy="293.8775510204081" r="10.612244897959185"/><circle class="assembly-hole-inner" fill="rgb(190, 190, 190)" cx="751.0204081632653" cy="293.8775510204081" r="4.8979591836734695"/></g><g transform="translate(563.265306122449, 299.99999999999994) scale(1, -1)"><path class="assembly-component" d="M-109.38775510204084,-192.32653061224488 L109.38775510204084,-192.32653061224488 L109.38775510204084,192.32653061224488 L-109.38775510204084,192.32653061224488 Z" stroke-width="0.80" transform="rotate(0)" stroke-dasharray=""/><text x="0" y="0" class="assembly-component-label" text-anchor="middle" dy=".10em" style="pointer-events: none" font-size="12px" transform="rotate(90) scale(1, -1)">ESP32</text><polygon class="assembly-pin1-indicator" points="-109.38775510204084,192.32653061224488 -54.69387755102042,192.32653061224488 -109.38775510204084,137.63265306122446" fill="#333" stroke="none" transform="rotate(0)"/></g><g transform="translate(200.00000000000006, 299.99999999999994) scale(1, -1)"><path class="assembly-component" d="M-172.6408163265306,-81.64081632653061 L172.6408163265306,-81.64081632653061 L172.6408163265306,81.64081632653061 L-172.6408163265306,81.64081632653061 Z" stroke-width="0.80" transform="rotate(0)" stroke-dasharray=""/><text x="0" y="0" class="assembly-component-label" text-anchor="middle" dy=".10em" style="pointer-events: none" font-size="12px" transform="scale(1, -1)">LM2596</text><polygon class="assembly-pin1-indicator" points="-172.6408163265306,81.64081632653061 -131.82040816326528,81.64081632653061 -172.6408163265306,40.820408163265306" fill="#333" stroke="none" transform="rotate(0)"/></g><g transform="translate(65.30612244897964, 164.48979591836726) scale(1, -1)"><path class="assembly-component" d="M-40.816326530612244,-35.91836734693878 L40.816326530612244,-35.91836734693878 L40.816326530612244,35.91836734693878 L-40.816326530612244,35.91836734693878 Z" stroke-width="0.80" transform="rotate(0)" stroke-dasharray=""/><text x="0" y="0" class="assembly-component-label" text-anchor="middle" dy=".10em" style="pointer-events: none" font-size="12px" transform="scale(1, -1)">PWR_IN</text><polygon class="assembly-pin1-indicator" points="-40.816326530612244,35.91836734693878 -22.857142857142854,35.91836734693878 -40.816326530612244,17.95918367346939" fill="#333" stroke="none" transform="rotate(0)"/></g><g transform="translate(179.59183673469394, 455.1020408163265) scale(1, -1)"><path class="assembly-component" d="M-78.2857142857143,-36.81632653061224 L78.2857142857143,-36.81632653061224 L78.2857142857143,36.81632653061224 L-78.2857142857143,36.81632653061224 Z" stroke-width="0.80" transform="rotate(0)" stroke-dasharray=""/><text x="0" y="0" class="assembly-component-label" text-anchor="middle" dy=".10em" style="pointer-events: none" font-size="12px" transform="scale(1, -1)">A4988</text><polygon class="assembly-pin1-indicator" points="-78.2857142857143,36.81632653061224 -59.87755102040819,36.81632653061224 -78.2857142857143,18.40816326530612" fill="#333" stroke="none" transform="rotate(0)"/></g><g transform="translate(48.979591836734755, 455.1020408163265) scale(1, -1)"><path class="assembly-component" d="M-16.081632653061273,-5.714285714285708 L16.081632653061273,-5.714285714285708 L16.081632653061273,5.714285714285708 L-16.081632653061273,5.714285714285708 Z" stroke-width="0.80" transform="rotate(0)" stroke-dasharray=""/><text x="0" y="0" class="assembly-component-label" text-anchor="middle" dy=".10em" style="pointer-events: none" font-size="9.1px" transform="scale(1, -1)">C_BULK</text><polygon class="assembly-pin1-indicator" points="-16.081632653061273,5.714285714285708 -13.22448979591842,5.714285714285708 -16.081632653061273,2.857142857142854" fill="#333" stroke="none" transform="rotate(0)"/></g><g transform="translate(179.59183673469394, 528.5714285714286) scale(1, -1)"><path class="assembly-component" d="M-36.81632653061223,-5.714285714285708 L36.81632653061223,-5.714285714285708 L36.81632653061223,5.714285714285708 L-36.81632653061223,5.714285714285708 Z" stroke-width="0.80" transform="rotate(0)" stroke-dasharray=""/><text x="0" y="0" class="assembly-component-label" text-anchor="middle" dy=".10em" style="pointer-events: none" font-size="9.1px" transform="scale(1, -1)">STEPPER</text><polygon class="assembly-pin1-indicator" points="-36.81632653061223,5.714285714285708 -33.959183673469376,5.714285714285708 -36.81632653061223,2.857142857142854" fill="#333" stroke="none" transform="rotate(0)"/></g><g transform="translate(416.32653061224494, 193.8775510204081) scale(1, -1)"><path class="assembly-component" d="M-5.714285714285715,-26.44897959183672 L5.714285714285715,-26.44897959183672 L5.714285714285715,26.44897959183672 L-5.714285714285715,26.44897959183672 Z" stroke-width="0.80" transform="rotate(0)" stroke-dasharray=""/><text x="0" y="0" class="assembly-component-label" text-anchor="middle" dy=".10em" style="pointer-events: none" font-size="9.1px" transform="rotate(90) scale(1, -1)">POT2</text><polygon class="assembly-pin1-indicator" points="5.714285714285715,-26.44897959183672 2.8571428571428577,-26.44897959183672 5.714285714285715,-23.591836734693864" fill="#333" stroke="none" transform="rotate(0)"/></g><g transform="translate(416.32653061224494, 259.1836734693877) scale(1, -1)"><path class="assembly-component" d="M-5.714285714285715,-26.448979591836736 L5.714285714285715,-26.448979591836736 L5.714285714285715,26.448979591836736 L-5.714285714285715,26.448979591836736 Z" stroke-width="0.80" transform="rotate(0)" stroke-dasharray=""/><text x="0" y="0" class="assembly-component-label" text-anchor="middle" dy=".10em" style="pointer-events: none" font-size="9.1px" transform="rotate(90) scale(1, -1)">POT1</text><polygon class="assembly-pin1-indicator" points="5.714285714285715,-26.448979591836736 2.8571428571428577,-26.448979591836736 5.714285714285715,-23.591836734693878" fill="#333" stroke="none" transform="rotate(0)"/></g><g transform="translate(416.32653061224494, 340.8163265306122) scale(1, -1)"><path class="assembly-component" d="M-5.714285714285715,-36.816326530612244 L5.714285714285715,-36.816326530612244 L5.714285714285715,36.816326530612244 L-5.714285714285715,36.816326530612244 Z" stroke-width="0.80" transform="rotate(0)" stroke-dasharray=""/><text x="0" y="0" class="assembly-component-label" text-anchor="middle" dy=".10em" style="pointer-events: none" font-size="9.1px" transform="rotate(90) scale(1, -1)">ENC</text><polygon class="assembly-pin1-indicator" points="5.714285714285715,-36.816326530612244 2.8571428571428577,-36.816326530612244 5.714285714285715,-33.95918367346938" fill="#333" stroke="none" transform="rotate(0)"/></g><g transform="translate(751.0204081632653, 414.2857142857142) scale(1, -1)"><path class="assembly-component" d="M-10.61224489795916,-82.04081632653062 L10.61224489795916,-82.04081632653062 L10.61224489795916,82.04081632653062 L-10.61224489795916,82.04081632653062 Z" stroke-width="0.80" transform="rotate(0)" stroke-dasharray=""/><text x="0" y="0" class="assembly-component-label" text-anchor="middle" dy=".10em" style="pointer-events: none" font-size="12px" transform="rotate(90) scale(1, -1)">J_DC</text><polygon class="assembly-pin1-indicator" points="10.61224489795916,82.04081632653062 5.30612244897958,82.04081632653062 10.61224489795916,76.73469387755104" fill="#333" stroke="none" transform="rotate(0)"/></g><g transform="translate(751.0204081632653, 193.8775510204081) scale(1, -1)"><path class="assembly-component" d="M-10.61224489795916,-110.61224489795919 L10.61224489795916,-110.61224489795919 L10.61224489795916,110.61224489795919 L-10.61224489795916,110.61224489795919 Z" stroke-width="0.80" transform="rotate(0)" stroke-dasharray=""/><text x="0" y="0" class="assembly-component-label" text-anchor="middle" dy=".10em" style="pointer-events: none" font-size="12px" transform="rotate(90) scale(1, -1)">J_EXP</text><polygon class="assembly-pin1-indicator" points="10.61224489795916,110.61224489795919 5.30612244897958,110.61224489795919 10.61224489795916,105.30612244897961" fill="#333" stroke="none" transform="rotate(0)"/></g></svg>